<svg width="144" height="151" viewBox="0 0 144 151" fill="none" xmlns="http://www.w3.org/2000/svg">
<g clip-path="url(#clip0_519_358)">
<path d="M92.8074 42.92L84.1099 35.6575H84.1074V42.92L92.8074 50.185L101.502 42.92V35.6575H101.5L92.8074 42.92Z" fill="#82315B"/>
<path d="M113.832 42.92L105.137 35.6575H105.135V42.92L113.832 50.185L122.53 42.92V35.6575H122.527L113.832 42.92Z" fill="#82315B"/>
<path d="M134.86 42.92L126.162 35.6575V42.92L134.86 50.185L143.555 42.92V35.6575H143.552L134.86 42.92Z" fill="#82315B"/>
<path d="M71.7795 42.92L63.0845 35.6575H63.082V42.92L71.7795 50.185L80.4745 42.92V35.6575L71.7795 42.92Z" fill="#82315B"/>
<path d="M50.7547 42.92L42.0572 35.6575H42.0547V42.92L50.7547 50.185L59.4497 42.92V35.6575H59.4472L50.7547 42.92Z" fill="#82315B"/>
<path d="M29.7248 42.92L21.0298 35.6575H21.0273V42.92L29.7248 50.185L38.4223 42.92V35.6575H38.4198L29.7248 42.92Z" fill="#82315B"/>
<path d="M8.69555 42.92L0.000546875 35.6575H-0.00195312V42.92L8.69555 50.185L17.393 42.92V35.6575H17.3905L8.69555 42.92Z" fill="#82315B"/>
<path d="M92.8074 92.5824L84.1099 85.3174H84.1074V92.5799L92.8074 99.8449L101.502 92.5799V85.3174H101.5L92.8074 92.5824Z" fill="#82315B"/>
<path d="M113.832 92.5824L105.137 85.3174H105.135V92.5799L113.832 99.8449L122.53 92.5799V85.3174H122.527L113.832 92.5824Z" fill="#82315B"/>
<path d="M134.86 92.5824L126.162 85.3174V92.5799L134.86 99.8449L143.555 92.5799V85.3174H143.552L134.86 92.5824Z" fill="#82315B"/>
<path d="M71.7795 92.5824L63.0845 85.3174H63.082V92.5799L71.7795 99.8449L80.4745 92.5799V85.3174L71.7795 92.5824Z" fill="#82315B"/>
<path d="M50.7547 92.5824L42.0572 85.3174H42.0547V92.5799L50.7547 99.8449L59.4497 92.5799V85.3174H59.4472L50.7547 92.5824Z" fill="#82315B"/>
<path d="M29.7248 92.5824L21.0298 85.3174H21.0273V92.5799L29.7248 99.8449L38.4223 92.5799V85.3174H38.4198L29.7248 92.5824Z" fill="#82315B"/>
<path d="M8.69555 92.5824L0.000546875 85.3174H-0.00195312V92.5799L8.69555 99.8449L17.393 92.5799V85.3174H17.3905L8.69555 92.5824Z" fill="#82315B"/>
<path d="M19.2077 28.3951L27.9052 35.6576V28.3976L19.2077 21.1326L10.5127 28.3976V35.6576L19.2077 28.3951Z" fill="#82315B"/>
<path d="M40.2321 28.3951L48.9296 35.6576H48.9321V28.3976L40.2321 21.1326L31.5371 28.3976V35.6576H31.5396L40.2321 28.3951Z" fill="#82315B"/>
<path d="M61.2575 28.3951L69.955 35.6576H69.9575V28.3976L61.2575 21.1326L52.5625 28.3976V35.6576H52.565L61.2575 28.3951Z" fill="#82315B"/>
<path d="M82.2849 28.3951L90.9823 35.6576H90.9848V28.3976L82.2849 21.1326L73.5898 28.3976V35.6576H73.5923L82.2849 28.3951Z" fill="#82315B"/>
<path d="M103.315 28.3951L112.01 35.6576H112.012V28.3976L103.315 21.1326L94.6172 28.3976V35.6576H94.6197L103.315 28.3951Z" fill="#82315B"/>
<path d="M124.342 28.3951L133.04 35.6576V28.3976L124.342 21.1326L115.647 28.3976V35.6576H115.65L124.342 28.3951Z" fill="#82315B"/>
<path d="M143.556 56.2651V63.5276L134.861 70.7926L126.163 63.5276V58.9676L124.341 57.4476L122.531 58.9601V63.5276L113.833 70.7926L105.136 63.5276V58.9651L103.316 57.4476L101.503 58.9626V63.5276L92.8081 70.7926L84.108 63.5276V58.9676L82.288 57.4476L80.4755 58.9601V63.5276L71.7805 70.7926L63.083 63.5276V58.9676L61.263 57.4476L59.4505 58.9601V63.5276L50.7555 70.7926L42.0555 63.5276V58.9651L40.238 57.4476L38.423 58.9626V63.5276L29.7255 70.7926L21.028 63.5276V58.9651L19.2105 57.4476L17.3905 58.9676V63.5276L8.69555 70.7926L-0.00195312 63.5276V56.2651H0.000546875L8.69555 63.5276L10.5155 62.0076V57.4476L19.2105 50.1851L27.9105 57.4476V62.0101L29.7255 63.5276L31.543 62.0101V57.4476L40.238 50.1851L48.9355 57.4476V62.0101L50.7555 63.5276L52.568 62.0151V57.4476L61.263 50.1851L69.9605 57.4476V62.0076L71.7805 63.5276L73.5905 62.0151V57.4476L82.288 50.1851L90.9881 57.4476V62.0076L92.8081 63.5276L94.6206 62.0151V57.4476L103.316 50.1851L112.016 57.4476V62.0101L113.833 63.5276L115.646 62.0151V57.4476L124.341 50.1851L133.041 57.4476V62.0101L134.861 63.5276L143.553 56.2651H143.556Z" fill="#82315B"/>
<path d="M143.556 105.925V113.187L134.861 120.452L126.163 113.187V108.627L124.341 107.107L122.531 108.62V113.187L113.833 120.452L105.136 113.187V108.625L103.316 107.107L101.503 108.622V113.187L92.8081 120.452L84.108 113.187V108.627L82.288 107.107L80.4755 108.62V113.187L71.7805 120.452L63.083 113.187V108.627L61.263 107.107L59.4505 108.62V113.187L50.7555 120.452L42.0555 113.187V108.625L40.238 107.107L38.423 108.622V113.187L29.7255 120.452L21.028 113.187V108.625L19.2105 107.107L17.3905 108.627V113.187L8.69555 120.452L-0.00195312 113.187V105.925H0.000546875L8.69555 113.187L10.5155 111.667V107.11L19.2105 99.845L27.9105 107.11V111.672L29.7255 113.187L31.543 111.672V107.11L40.238 99.845L48.9355 107.11V111.67L50.7555 113.187L52.568 111.675V107.11L61.263 99.845L69.9605 107.11V111.667L71.7805 113.187L73.5905 111.677V107.11L82.288 99.845L90.9881 107.11V111.667L92.8081 113.187L94.6206 111.675V107.11L103.316 99.845L112.016 107.11V111.67L113.833 113.187L115.646 111.675V107.11L124.341 99.845L133.041 107.11V111.67L134.861 113.187L143.553 105.925H143.556Z" fill="#82315B"/>
<path d="M143.557 6.6049V13.8649L134.863 21.1324L126.165 13.8649V9.3074L124.345 7.7874L122.533 9.2999V13.8649L113.838 21.1324L105.137 13.8649V9.3049L103.32 7.7874L101.505 9.3024V13.8649L92.81 21.1324L84.1125 13.8649V9.3074L82.29 7.7874L80.4775 9.2999V13.8649L71.7825 21.1324L63.085 13.8649V9.3074L61.265 7.7874L59.4525 9.2999V13.8649L50.7575 21.1324L42.0575 13.8649V9.3049L40.24 7.7874L38.425 9.3024V13.8649L29.7275 21.1324L21.03 13.8649V9.3024L19.2125 7.7874L17.3925 9.3074V13.8649L8.6975 21.1324L0 13.8649V6.6049L8.6975 13.8674L10.5175 12.3474V7.7874L19.2125 0.524902L27.9125 7.7874V12.3499L29.7275 13.8674L31.545 12.3499V7.7874L40.24 0.524902L48.9375 7.7874V12.3499L50.7575 13.8674L52.57 12.3549V7.7874L61.265 0.524902L69.9625 7.7874V12.3474L71.7825 13.8674L73.595 12.3549V7.7874L82.29 0.524902L90.99 7.7874V12.3474L92.81 13.8674L94.6225 12.3549V7.7874L103.32 0.524902L112.018 7.7874V12.3499L113.838 13.8674L115.647 12.3549V7.7874L124.345 0.524902L133.045 7.7874V12.3499L134.863 13.8674L143.557 6.6049Z" fill="#82315B"/>
<path d="M124.342 78.055L133.04 85.3175H133.042V78.0575L124.342 70.7925L115.647 78.0575V85.3175H115.65L124.342 78.055Z" fill="#82315B"/>
<path d="M103.318 78.055L112.013 85.3175H112.015V78.0575L103.318 70.7925L94.6201 78.0575V85.3175H94.6226L103.318 78.055Z" fill="#82315B"/>
<path d="M82.2868 78.055L90.9843 85.3175H90.9868V78.0575L82.2868 70.7925L73.5918 78.0575V85.3175H73.5943L82.2868 78.055Z" fill="#82315B"/>
<path d="M61.2624 78.055L69.9599 85.3175H69.9624V78.0575L61.2624 70.7925L52.5674 78.0575V85.3175H52.5699L61.2624 78.055Z" fill="#82315B"/>
<path d="M40.238 78.055L48.9355 85.3175H48.938V78.0575L40.238 70.7925L31.543 78.0575V85.3175H31.5455L40.238 78.055Z" fill="#82315B"/>
<path d="M19.2121 78.055L27.9071 85.3175H27.9096V78.0575L19.2121 70.7925L10.5146 78.0575V85.3175H10.5171L19.2121 78.055Z" fill="#82315B"/>
<path d="M92.8055 142.243L84.108 134.978H84.1055V142.24L92.8055 149.505L101.5 142.24V134.98H101.498L92.8055 142.243Z" fill="#82315B"/>
<path d="M113.83 142.243L105.135 134.978H105.133V142.24L113.83 149.505L122.528 142.24V134.98H122.525L113.83 142.243Z" fill="#82315B"/>
<path d="M134.858 142.243L126.161 134.978H126.158V142.24L134.858 149.505L143.553 142.24V134.98H143.551L134.858 142.243Z" fill="#82315B"/>
<path d="M71.7776 142.243L63.0826 134.978H63.0801V142.24L71.7776 149.505L80.4726 142.24V134.98L71.7776 142.243Z" fill="#82315B"/>
<path d="M50.7527 142.243L42.0552 134.978H42.0527V142.24L50.7527 149.505L59.4477 142.24V134.98H59.4452L50.7527 142.243Z" fill="#82315B"/>
<path d="M29.7229 142.243L21.0279 134.978H21.0254V142.24L29.7229 149.505L38.4179 142.24V134.98L29.7229 142.243Z" fill="#82315B"/>
<path d="M8.69262 142.243L-0.00238281 134.978H-0.00488281V142.24L8.69262 149.505L17.3901 142.24V134.98H17.3876L8.69262 142.243Z" fill="#82315B"/>
<path d="M124.34 127.715L133.035 134.978H133.038V127.718L124.34 120.453L115.643 127.718V134.978H115.645L124.34 127.715Z" fill="#82315B"/>
<path d="M103.312 127.715L112.01 134.978H112.012V127.718L103.312 120.453L94.6172 127.718V134.978H94.6197L103.312 127.715Z" fill="#82315B"/>
<path d="M82.2849 127.715L90.9799 134.978H90.9823V127.718L82.2849 120.453L73.5898 127.718V134.978L82.2849 127.715Z" fill="#82315B"/>
<path d="M61.2575 127.715L69.955 134.978H69.9575V127.718L61.2575 120.453L52.5625 127.718V134.978H52.565L61.2575 127.715Z" fill="#82315B"/>
<path d="M40.2346 127.715L48.9296 134.978H48.9321V127.718L40.2346 120.453L31.5371 127.718V134.978H31.5396L40.2346 127.715Z" fill="#82315B"/>
<path d="M19.2077 127.715L27.9052 134.978H27.9077V127.718L19.2077 120.453L10.5127 127.718V134.978H10.5152L19.2077 127.715Z" fill="#82315B"/>
</g>
<defs>
<clipPath id="clip0_519_358">
<rect width="143.29" height="150.35" fill="white"/>
</clipPath>
</defs>
</svg>
