<svg width="91" height="64" viewBox="0 0 91 64" fill="none" xmlns="http://www.w3.org/2000/svg">
<path d="M15.1126 28.5548V18.8268H19.6608L19.6772 34.0606H15.129L15.1126 33.0695C14.6067 33.5066 14.0315 33.8467 13.3836 34.0899C12.7357 34.3331 12.055 34.4556 11.3361 34.4556C10.2532 34.4556 9.26678 34.1886 8.37134 33.6565C7.4759 33.1226 6.76428 32.4094 6.23284 31.5152C5.7014 30.6211 5.4375 29.6263 5.4375 28.5292V18.825H9.98568V28.553M10.3351 28.553H14.7705H10.3351Z" fill="white"/>
<path d="M22.7235 34.0625L22.709 18.8286H27.2572L27.2717 19.7886C27.7777 19.3516 28.3528 19.0115 29.0007 18.7683C29.6486 18.5251 30.3293 18.4026 31.0482 18.4026C31.5942 18.4026 32.1493 18.4849 32.7172 18.6458L30.9281 23.2776C30.575 23.1166 30.211 23.0344 29.8361 23.0344C29.3611 23.0344 28.9279 23.1496 28.5403 23.3781C28.1508 23.6067 27.8414 23.9176 27.6157 24.307C27.3882 24.6984 27.2735 25.1317 27.2735 25.609V34.0643H22.7254L22.7235 34.0625Z" fill="white"/>
<path d="M42.7549 18.4009C44.231 18.4009 45.5759 18.7629 46.7881 19.4834C48.0002 20.2057 48.9666 21.1712 49.6837 22.3853C50.4008 23.5995 50.7593 24.9417 50.7593 26.4155C50.7593 27.5236 50.5518 28.5641 50.1369 29.5387C49.7219 30.5133 49.1486 31.3691 48.4151 32.106C47.6817 32.8411 46.8336 33.4189 45.869 33.8359C44.9025 34.2528 43.8651 34.4612 42.7531 34.4612C41.9541 34.4612 41.2371 34.2875 40.6001 33.9419C39.9631 33.5981 39.4061 33.1593 38.9329 32.6327V34.0644H34.3848V11.2109H38.9329V20.2295C39.408 19.6919 39.9631 19.2512 40.6001 18.9111C41.2371 18.5709 41.9541 18.4009 42.7531 18.4009H42.7549ZM42.6949 30.0397C43.321 30.0397 43.8924 29.877 44.4075 29.5515C44.9226 29.226 45.3321 28.7908 45.636 28.2423C45.9399 27.6937 46.091 27.0848 46.091 26.4137C46.091 25.7426 45.9399 25.1501 45.636 24.6016C45.3321 24.053 44.9226 23.6141 44.4075 23.2832C43.8906 22.9522 43.321 22.7876 42.6949 22.7876C42.0688 22.7876 41.5137 22.9522 41.0041 23.2832C40.4945 23.6123 40.0868 24.053 39.7847 24.6016C39.4808 25.1501 39.3297 25.7536 39.3297 26.4137C39.3297 27.0738 39.4826 27.6937 39.7847 28.2423C40.0868 28.7908 40.4945 29.2279 41.0041 29.5515C41.5155 29.877 42.0779 30.0397 42.6949 30.0397Z" fill="white"/>
<path d="M64.0735 18.8269H68.6217V34.0608H64.0571L63.8442 32.6893C63.4711 33.2178 62.9979 33.6439 62.4264 33.9693C61.8549 34.2948 61.1906 34.4576 60.4335 34.4576C59.3014 34.4576 58.2422 34.2436 57.2558 33.8176C56.2693 33.3915 55.403 32.7991 54.655 32.0439C53.907 31.2868 53.3227 30.4128 52.9041 29.4235C52.4855 28.4324 52.2744 27.37 52.2744 26.2308C52.2744 25.0916 52.471 24.128 52.8659 23.1844C53.2609 22.2409 53.8141 21.4089 54.5258 20.6939C55.2374 19.9789 56.0618 19.4157 56.9973 19.0098C57.9328 18.6039 58.9356 18.4009 60.0076 18.4009C60.8757 18.4009 61.6674 18.5819 62.3809 18.9421C63.0943 19.3024 63.7277 19.7522 64.2846 20.2898L64.0735 18.8269ZM60.3134 30.0708C60.9394 30.0708 61.5109 29.9081 62.026 29.5826C62.541 29.2571 62.9505 28.8201 63.2545 28.2715C63.5584 27.7229 63.7095 27.114 63.7095 26.4429C63.7095 25.7719 63.5584 25.1629 63.2545 24.6144C62.9505 24.0658 62.541 23.6288 62.026 23.3051C61.5091 22.9796 60.9394 22.8169 60.3134 22.8169C59.6873 22.8169 59.1176 22.9796 58.608 23.3051C58.0966 23.6306 57.6926 24.0658 57.3941 24.6144C57.0956 25.1629 56.9464 25.7719 56.9464 26.4429C56.9464 27.114 57.0974 27.7229 57.4014 28.2715C57.7053 28.8201 58.1112 29.2571 58.6226 29.5826C59.134 29.9081 59.6964 30.0708 60.3134 30.0708Z" fill="white"/>
<path d="M85.8942 24.3272V34.0625H81.3461L81.3388 24.3345H76.2137L76.2209 34.0625H71.6728L71.6582 18.8286H76.2064L76.2209 19.7886C76.7269 19.3516 77.302 19.0115 77.9499 18.7683C78.5979 18.5251 79.2785 18.4026 79.9974 18.4026C81.0894 18.4026 82.0795 18.6696 82.9695 19.2017C83.8577 19.7356 84.5693 20.4488 85.1007 21.3429C85.6303 22.2371 85.8961 23.2318 85.8961 24.329L85.8942 24.3272Z" fill="white"/>
<path d="M47.2677 50.3314V59.2402H43.1053V49.5122H38.7992V59.2402H34.2528L34.2383 38.3286H38.4006L38.4134 46.1768C38.8756 45.7764 39.4034 45.4655 39.9949 45.2424C40.5864 45.0194 41.2107 44.9078 41.8677 44.9078C42.8669 44.9078 43.7733 45.151 44.5886 45.6392C45.4022 46.1275 46.0519 46.7803 46.5378 47.5995C47.0238 48.4168 47.2658 49.3275 47.2658 50.3314H47.2677Z" fill="white"/>
<path d="M52.1514 43.8491C51.5508 43.8491 51.0467 43.6497 50.639 43.2493C50.2313 42.8488 50.0293 42.3533 50.0293 41.7572C50.0293 41.1611 50.2331 40.6765 50.639 40.2724C51.0449 39.8683 51.5454 39.6653 52.1369 39.6653C52.7284 39.6653 53.2125 39.8683 53.6147 40.2724C54.0169 40.6765 54.2189 41.172 54.2189 41.7572C54.2189 42.3423 54.0224 42.8488 53.6293 43.2493C53.2361 43.6497 52.7429 43.8491 52.1514 43.8491ZM50.042 45.2991H54.2044V59.2401H50.042V45.2991Z" fill="white"/>
<path d="M66.5825 59.2401H61.1989L56.1484 45.2991H60.5874L63.8907 54.4438L67.194 45.2991H71.633L66.5825 59.2401Z" fill="white"/>
<path d="M79.1255 59.6022C77.8497 59.6022 76.6848 59.2713 75.6365 58.6112C74.5864 57.951 73.7492 57.0642 73.1249 55.9488C72.5007 54.8333 72.1895 53.6027 72.1895 52.255C72.1895 51.242 72.3696 50.2912 72.73 49.4043C73.0903 48.5156 73.589 47.7366 74.2224 47.0619C74.8557 46.389 75.5929 45.8605 76.4355 45.4802C77.2782 45.0998 78.1736 44.9097 79.1273 44.9097C80.2375 44.9097 81.253 45.1529 82.174 45.6411C83.0949 46.1293 83.872 46.7894 84.5054 47.6214C85.1388 48.4534 85.5901 49.3897 85.8576 50.432C86.1252 51.4724 86.1543 52.5458 85.9414 53.6521H76.6867C76.8159 53.9776 76.9888 54.272 77.2072 54.5371C77.4256 54.8022 77.6931 55.0125 78.0116 55.1716C78.3301 55.3307 78.7032 55.413 79.1291 55.4221C79.5368 55.4313 79.9135 55.3435 80.2593 55.157C80.607 54.9723 80.9091 54.72 81.1693 54.4054L85.4154 55.3947C84.8512 56.6308 84.0103 57.642 82.8892 58.4265C81.7699 59.2128 80.5159 59.6041 79.1291 59.6041L79.1255 59.6022ZM76.532 50.5819H81.7353C81.6043 50.1833 81.4114 49.8303 81.1511 49.5231C80.8927 49.2178 80.5888 48.9746 80.243 48.799C79.8953 48.6217 79.5241 48.5339 79.1255 48.5339C78.7269 48.5339 78.3702 48.6217 78.0226 48.799C77.6749 48.9764 77.3746 49.2178 77.1216 49.5231C76.8668 49.8303 76.6703 50.1833 76.532 50.5819Z" fill="white"/>
<path d="M30.3652 48.7863V59.2421H5.43848V48.7863L17.9 38.3269L30.3652 48.7863Z" fill="white"/>
<path d="M9.61104 8.21759H7.60904L7.60176 15.4532H6.42968L6.43696 8.21759H4.9209V7.03999H6.43696L6.42968 4.39771H7.60176L7.60904 7.03999H9.61104V8.21759Z" fill="white"/>
<path d="M20.087 10.2455V15.4532H18.9149V9.92365C18.9149 9.92365 18.5382 7.98536 16.4361 7.98536C14.4577 7.98536 14.0573 9.92365 14.0573 9.92365V15.4532H12.7852V4.39771H13.9572V8.20113C14.2539 7.77508 14.6379 7.43496 15.1129 7.18262C15.588 6.93028 16.103 6.80411 16.6618 6.80411C17.2933 6.80411 17.8684 6.95771 18.3871 7.26673C18.9058 7.57576 19.319 7.99085 19.6265 8.51199C19.9341 9.03313 20.087 9.61096 20.087 10.2455Z" fill="white"/>
<path d="M26.9544 15.6709C26.1846 15.6709 25.482 15.4716 24.8487 15.073C24.2153 14.6744 23.7094 14.1404 23.3326 13.4693C22.9559 12.7983 22.7666 12.0577 22.7666 11.244C22.7666 10.6277 22.8758 10.0499 23.0942 9.51414C23.3126 8.97837 23.6111 8.50659 23.9951 8.10065C24.3773 7.69471 24.8232 7.37654 25.331 7.14614C25.8388 6.91574 26.3811 6.80054 26.9562 6.80054C27.575 6.80054 28.1465 6.92305 28.6689 7.16991C29.1912 7.41677 29.6407 7.76237 30.0175 8.20488C30.3942 8.64739 30.6781 9.16671 30.8711 9.76099C31.064 10.3553 31.1441 10.9971 31.1095 11.6883H24.0078C24.0752 12.2204 24.2426 12.6977 24.5138 13.1183C24.785 13.5388 25.1308 13.8716 25.553 14.1148C25.9753 14.358 26.443 14.4842 26.9562 14.4897C27.515 14.4897 28.0173 14.3434 28.4668 14.0527C28.9164 13.7619 29.2767 13.3596 29.5516 12.8495L30.74 13.1274C30.4051 13.8735 29.8992 14.4842 29.224 14.9578C28.5487 15.4314 27.7916 15.6691 26.9544 15.6691V15.6709ZM23.9733 10.7411H29.9283C29.8883 10.22 29.7317 9.74088 29.4551 9.30751C29.1785 8.87231 28.8236 8.52488 28.3868 8.26339C27.9518 8.00191 27.4731 7.87208 26.9544 7.87208C26.4357 7.87208 25.9607 8.00008 25.5312 8.25425C25.1017 8.51025 24.7486 8.85402 24.4756 9.28922C24.2026 9.72442 24.0351 10.2072 23.9733 10.7411Z" fill="white"/>
</svg>
