<svg width="69" height="48" viewBox="0 0 69 48" fill="none" xmlns="http://www.w3.org/2000/svg">
<path d="M11.4591 21.4163V14.1203H14.9077L14.9202 25.5456H11.4715L11.4591 24.8023C11.0755 25.1301 10.6394 25.3852 10.1481 25.5676C9.65685 25.75 9.14073 25.8419 8.59563 25.8419C7.77453 25.8419 7.02657 25.6416 6.34761 25.2426C5.66865 24.8421 5.12907 24.3072 4.72611 23.6366C4.32315 22.966 4.12305 22.2199 4.12305 21.3971V14.1189H7.57167V21.4149M7.83663 21.4149H11.1997H7.83663Z" fill="#82315B"/>
<path d="M17.2298 25.5469L17.2188 14.1215H20.6674L20.6784 14.8415C21.062 14.5138 21.4981 14.2587 21.9894 14.0763C22.4807 13.8939 22.9968 13.802 23.5419 13.802C23.9559 13.802 24.3768 13.8637 24.8074 13.9844L23.4508 17.4582C23.1831 17.3375 22.9071 17.2758 22.6228 17.2758C22.2626 17.2758 21.9342 17.3622 21.6403 17.5337C21.345 17.7051 21.1103 17.9382 20.9392 18.2303C20.7667 18.5238 20.6798 18.8489 20.6798 19.2068V25.5483H17.2312L17.2298 25.5469Z" fill="#82315B"/>
<path d="M32.4189 13.8007C33.5381 13.8007 34.5579 14.0722 35.477 14.6125C36.396 15.1543 37.1288 15.8784 37.6725 16.789C38.2163 17.6996 38.4881 18.7063 38.4881 19.8116C38.4881 20.6427 38.3308 21.4231 38.0162 22.154C37.7015 22.885 37.2668 23.5268 36.7107 24.0795C36.1545 24.6308 35.5115 25.0642 34.7801 25.3769C34.0473 25.6896 33.2607 25.8459 32.4175 25.8459C31.8117 25.8459 31.268 25.7156 30.785 25.4564C30.302 25.1986 29.8797 24.8695 29.5209 24.4745V25.5483H26.0723V8.4082H29.5209V15.1721C29.8811 14.7689 30.302 14.4384 30.785 14.1833C31.268 13.9282 31.8117 13.8007 32.4175 13.8007H32.4189ZM32.3733 22.5298C32.8481 22.5298 33.2814 22.4077 33.6719 22.1636C34.0625 21.9195 34.373 21.5931 34.6034 21.1817C34.8339 20.7703 34.9484 20.3136 34.9484 19.8103C34.9484 19.3069 34.8339 18.8626 34.6034 18.4512C34.373 18.0397 34.0625 17.7106 33.6719 17.4624C33.28 17.2141 32.8481 17.0907 32.3733 17.0907C31.8986 17.0907 31.4777 17.2141 31.0913 17.4624C30.7049 17.7092 30.3958 18.0397 30.1667 18.4512C29.9363 18.8626 29.8217 19.3152 29.8217 19.8103C29.8217 20.3053 29.9376 20.7703 30.1667 21.1817C30.3958 21.5931 30.7049 21.9209 31.0913 22.1636C31.4791 22.4077 31.9055 22.5298 32.3733 22.5298Z" fill="#82315B"/>
<path d="M48.5833 14.1201H52.0319V25.5455H48.5708L48.4094 24.5169C48.1265 24.9132 47.7677 25.2328 47.3344 25.4769C46.901 25.721 46.3973 25.8431 45.8233 25.8431C44.9649 25.8431 44.1617 25.6826 43.4138 25.3631C42.6658 25.0435 42.0089 24.5992 41.4418 24.0328C40.8746 23.465 40.4316 22.8095 40.1142 22.0675C39.7968 21.3242 39.6367 20.5274 39.6367 19.673C39.6367 18.8186 39.7858 18.0959 40.0852 17.3882C40.3847 16.6805 40.8042 16.0565 41.3438 15.5203C41.8834 14.9841 42.5085 14.5617 43.2178 14.2572C43.9271 13.9528 44.6875 13.8005 45.5003 13.8005C46.1586 13.8005 46.7589 13.9363 47.2999 14.2065C47.8408 14.4767 48.3211 14.814 48.7433 15.2172L48.5833 14.1201ZM45.7322 22.553C46.2069 22.553 46.6402 22.4309 47.0308 22.1868C47.4213 21.9427 47.7318 21.6149 47.9623 21.2035C48.1927 20.7921 48.3073 20.3354 48.3073 19.8321C48.3073 19.3288 48.1927 18.8721 47.9623 18.4607C47.7318 18.0492 47.4213 17.7215 47.0308 17.4787C46.6388 17.2346 46.2069 17.1125 45.7322 17.1125C45.2575 17.1125 44.8255 17.2346 44.4391 17.4787C44.0513 17.7228 43.745 18.0492 43.5187 18.4607C43.2923 18.8721 43.1792 19.3288 43.1792 19.8321C43.1792 20.3354 43.2937 20.7921 43.5242 21.2035C43.7546 21.6149 44.0624 21.9427 44.4502 22.1868C44.8379 22.4309 45.2644 22.553 45.7322 22.553Z" fill="#82315B"/>
<path d="M65.1283 18.2454V25.5469H61.6797L61.6742 18.2509H57.7881L57.7936 25.5469H54.345L54.334 14.1215H57.7826L57.7936 14.8415C58.1773 14.5138 58.6134 14.2587 59.1046 14.0763C59.5959 13.8939 60.112 13.802 60.6571 13.802C61.4851 13.802 62.2359 14.0022 62.9107 14.4013C63.5841 14.8018 64.1237 15.3366 64.5267 16.0073C64.9282 16.6779 65.1297 17.4239 65.1297 18.2468L65.1283 18.2454Z" fill="#82315B"/>
<path d="M35.8404 37.7486V44.4302H32.6843V37.1342H29.4192V44.4302H25.972L25.9609 28.7466H29.117L29.1267 34.6328C29.4772 34.3324 29.8774 34.0993 30.3259 33.932C30.7744 33.7646 31.2477 33.681 31.7459 33.681C32.5035 33.681 33.1908 33.8634 33.809 34.2296C34.4259 34.5957 34.9185 35.0853 35.287 35.6997C35.6554 36.3128 35.839 36.9957 35.839 37.7486H35.8404Z" fill="#82315B"/>
<path d="M39.5437 32.8869C39.0883 32.8869 38.706 32.7374 38.3969 32.437C38.0878 32.1367 37.9346 31.765 37.9346 31.3179C37.9346 30.8709 38.0891 30.5074 38.3969 30.2043C38.7046 29.9013 39.0841 29.749 39.5326 29.749C39.9811 29.749 40.3482 29.9013 40.6532 30.2043C40.9581 30.5074 41.1113 30.8791 41.1113 31.3179C41.1113 31.7568 40.9623 32.1367 40.6642 32.437C40.3661 32.7374 39.9922 32.8869 39.5437 32.8869ZM37.9442 33.9744H41.1003V44.4302H37.9442V33.9744Z" fill="#82315B"/>
<path d="M50.4858 44.4301H46.4037L42.5742 33.9744H45.94L48.4447 40.8329L50.9494 33.9744H54.3153L50.4858 44.4301Z" fill="#82315B"/>
<path d="M59.9965 44.7018C59.0291 44.7018 58.1459 44.4536 57.351 43.9585C56.5548 43.4634 55.92 42.7983 55.4466 41.9617C54.9733 41.1251 54.7373 40.2021 54.7373 39.1914C54.7373 38.4316 54.8739 37.7185 55.1472 37.0533C55.4204 36.3868 55.7985 35.8026 56.2788 35.2965C56.759 34.7919 57.3179 34.3955 57.9568 34.1103C58.5958 33.825 59.2747 33.6824 59.9979 33.6824C60.8397 33.6824 61.6097 33.8648 62.308 34.2309C63.0063 34.5971 63.5955 35.0922 64.0758 35.7162C64.556 36.3402 64.8982 37.0424 65.1011 37.8241C65.304 38.6044 65.326 39.4095 65.1646 40.2392H58.1473C58.2453 40.4833 58.3764 40.7041 58.542 40.9029C58.7076 41.1018 58.9104 41.2595 59.1519 41.3788C59.3934 41.4981 59.6763 41.5599 59.9992 41.5667C60.3084 41.5736 60.594 41.5077 60.8562 41.3679C61.1198 41.2293 61.3489 41.0401 61.5462 40.8042L64.7658 41.5461C64.338 42.4732 63.7004 43.2316 62.8503 43.82C62.0016 44.4097 61.0508 44.7032 59.9992 44.7032L59.9965 44.7018ZM58.03 37.9365H61.9754C61.876 37.6376 61.7298 37.3729 61.5324 37.1425C61.3365 36.9135 61.106 36.7311 60.8438 36.5994C60.5802 36.4664 60.2987 36.4005 59.9965 36.4005C59.6943 36.4005 59.4238 36.4664 59.1602 36.5994C58.8966 36.7324 58.6689 36.9135 58.4771 37.1425C58.2839 37.3729 58.1349 37.6376 58.03 37.9365Z" fill="#82315B"/>
<path d="M23.0245 36.5897V44.4315H4.12402V36.5897L13.5729 28.7451L23.0245 36.5897Z" fill="#FEC80A"/>
<path d="M7.28771 6.16325H5.76971L5.76419 11.59H4.87547L4.88099 6.16325H3.73145V5.28005H4.88099L4.87547 3.29834H5.76419L5.76971 5.28005H7.28771V6.16325Z" fill="#82315B"/>
<path d="M15.2309 7.68417V11.59H14.3422V7.4428C14.3422 7.4428 14.0565 5.98908 12.4626 5.98908C10.9626 5.98908 10.659 7.4428 10.659 7.4428V11.59H9.69434V3.29834H10.5831V6.15091C10.808 5.83137 11.0992 5.57628 11.4594 5.38703C11.8195 5.19777 12.2101 5.10314 12.6337 5.10314C13.1126 5.10314 13.5487 5.21834 13.942 5.45011C14.3353 5.68188 14.6485 5.9932 14.8818 6.38405C15.115 6.77491 15.2309 7.20828 15.2309 7.68417Z" fill="#82315B"/>
<path d="M20.4381 11.7531C19.8543 11.7531 19.3217 11.6037 18.8414 11.3047C18.3612 11.0057 17.9775 10.6053 17.6919 10.1019C17.4062 9.59863 17.2627 9.0432 17.2627 8.43291C17.2627 7.97074 17.3455 7.53737 17.5111 7.13554C17.6767 6.73371 17.903 6.37988 18.1942 6.07543C18.484 5.77097 18.8221 5.53234 19.2071 5.35954C19.5921 5.18674 20.0034 5.10034 20.4395 5.10034C20.9087 5.10034 21.342 5.19223 21.738 5.37737C22.1341 5.56251 22.475 5.82171 22.7606 6.1536C23.0463 6.48548 23.2616 6.87497 23.4078 7.32068C23.5541 7.7664 23.6148 8.24777 23.5886 8.76617H18.2039C18.2549 9.16526 18.3819 9.5232 18.5875 9.83863C18.7931 10.1541 19.0553 10.4037 19.3755 10.5861C19.6956 10.7685 20.0503 10.8631 20.4395 10.8672C20.8631 10.8672 21.244 10.7575 21.5849 10.5394C21.9257 10.3214 22.199 10.0197 22.4073 9.63703L23.3085 9.84548C23.0546 10.405 22.6709 10.8631 22.1589 11.2183C21.647 11.5735 21.0729 11.7518 20.4381 11.7518V11.7531ZM18.1776 8.05577H22.693C22.6626 7.66491 22.544 7.3056 22.3342 6.98057C22.1244 6.65417 21.8553 6.3936 21.5241 6.19748C21.1943 6.00137 20.8314 5.904 20.4381 5.904C20.0448 5.904 19.6846 6 19.3589 6.19063C19.0332 6.38263 18.7655 6.64046 18.5585 6.96686C18.3515 7.29326 18.2246 7.65531 18.1776 8.05577Z" fill="#82315B"/>
</svg>
